<svg xmlns="http://www.w3.org/2000/svg" xmlns:xlink="http://www.w3.org/1999/xlink" version="1.1" width="256" height="256" viewBox="0 0 256 256" xml:space="preserve">

<defs>
</defs>
<g style="stroke: none; stroke-width: 0; stroke-dasharray: none; stroke-linecap: butt; stroke-linejoin: miter; stroke-miterlimit: 10; fill: none; fill-rule: nonzero; opacity: 1;" transform="translate(1.4065934065934016 1.4065934065934016) scale(2.81 2.81)" >
	<path d="M 38.877 40.375 L 38.877 40.375 c -9.415 0 -17.118 -7.703 -17.118 -17.118 v -6.139 C 21.759 7.703 29.462 0 38.877 0 h 0 c 9.415 0 17.118 7.703 17.118 17.118 v 6.139 C 55.995 32.672 48.292 40.375 38.877 40.375 z" style="stroke: none; stroke-width: 1; stroke-dasharray: none; stroke-linecap: butt; stroke-linejoin: miter; stroke-miterlimit: 10; fill: rgb(0,0,0); fill-rule: nonzero; opacity: 1;" transform=" matrix(1 0 0 1 0 0) " stroke-linecap="round" />
	<path d="M 50.103 75.603 c 0 -10.209 7.969 -18.535 18.022 -19.154 c -3.98 -7.222 -11.159 -12.461 -19.609 -13.722 c -2.896 1.499 -6.169 2.363 -9.639 2.363 c -3.47 0 -6.743 -0.863 -9.639 -2.363 C 16.296 44.659 6.286 55.889 6.286 69.347 v 17.707 C 6.286 88.674 7.612 90 9.232 90 h 47.391 C 52.633 86.479 50.103 81.342 50.103 75.603 z" style="stroke: none; stroke-width: 1; stroke-dasharray: none; stroke-linecap: butt; stroke-linejoin: miter; stroke-miterlimit: 10; fill: rgb(0,0,0); fill-rule: nonzero; opacity: 1;" transform=" matrix(1 0 0 1 0 0) " stroke-linecap="round" />
	<path d="M 69.317 61.206 c -7.951 0 -14.397 6.446 -14.397 14.397 C 54.92 83.554 61.366 90 69.317 90 c 7.951 0 14.397 -6.446 14.397 -14.397 C 83.714 67.652 77.268 61.206 69.317 61.206 z M 76.748 76.303 l -2.726 2.726 C 74.012 79.038 74 79.041 73.99 79.05 l -5.987 5.987 c -0.384 0.384 -1.006 0.384 -1.389 0 l -2.726 -2.726 c -0.384 -0.384 -0.384 -1.006 0 -1.389 l 5.318 -5.318 l -5.318 -5.318 c -0.384 -0.384 -0.384 -1.006 0 -1.389 l 2.726 -2.726 c 0.384 -0.384 1.006 -0.384 1.389 0 l 5.987 5.987 c 0.01 0.009 0.022 0.012 0.031 0.021 l 2.726 2.726 c 0.193 0.193 0.288 0.447 0.287 0.7 C 77.036 75.856 76.941 76.11 76.748 76.303 z" style="stroke: none; stroke-width: 1; stroke-dasharray: none; stroke-linecap: butt; stroke-linejoin: miter; stroke-miterlimit: 10; fill: rgb(0,0,0); fill-rule: nonzero; opacity: 1;" transform=" matrix(1 0 0 1 0 0) " stroke-linecap="round" />
</g>
</svg>